<svg width="120" height="128" viewBox="0 0 120 128" fill="none" xmlns="http://www.w3.org/2000/svg">
<path d="M90.6165 75.9149C96.7437 55.9187 95.3395 37.7504 87.4802 35.3349C79.6208 32.9194 68.2824 47.1713 62.1551 67.1674C56.0279 87.1636 57.4321 105.332 65.2915 107.747C73.1508 110.163 84.4892 95.911 90.6165 75.9149Z" fill="#303646"/>
<path d="M88.2754 75.1962C94.4027 55.2 93.4595 37.1735 86.1689 34.9327C78.8782 32.692 68.0009 47.0856 61.8736 67.0818C55.7464 87.0779 56.6895 105.105 63.9802 107.345C71.2708 109.586 82.1482 95.1924 88.2754 75.1962Z" fill="white"/>
<path d="M86.0745 74.5204C91.49 56.847 90.6566 40.9144 84.213 38.934C77.7694 36.9536 68.1557 49.6753 62.7402 67.3487C57.3247 85.0221 58.1581 100.955 64.6018 102.935C71.0454 104.915 80.659 92.1937 86.0745 74.5204Z" fill="#CD2B31"/>
<path d="M83.3356 73.6746C87.7442 59.2874 87.0655 46.3174 81.8199 44.7052C76.5743 43.093 68.748 53.4491 64.3395 67.8362C59.931 82.2234 60.6096 95.1934 65.8553 96.8056C71.1009 98.4178 78.9271 88.0617 83.3356 73.6746Z" fill="white"/>
<path d="M81.5574 72.3739C85.1436 60.6906 84.5972 50.1561 80.3371 48.8445C76.077 47.533 69.7164 55.941 66.1303 67.6243C62.5441 79.3077 63.0904 89.8422 67.3505 91.1537C71.6106 92.4653 77.9713 84.0573 81.5574 72.3739Z" fill="#CD2B31"/>
<path d="M77.8266 71.9844C80.2212 64.1697 79.8522 57.1247 77.0025 56.2488C74.1528 55.373 69.9015 60.998 67.5069 68.8127C65.1123 76.6274 65.4813 83.6724 68.331 84.5482C71.1807 85.4241 75.432 79.7991 77.8266 71.9844Z" fill="white"/>
<path d="M75.9793 70.6574C77.1889 66.7165 77.0042 63.1629 75.5667 62.7203C74.1292 62.2777 71.9832 65.1138 70.7735 69.0547C69.5639 72.9957 69.7486 76.5493 71.1861 76.9918C72.6237 77.4344 74.7696 74.5984 75.9793 70.6574Z" fill="#CD2B31"/>
<path d="M68.6614 65.1037C67.7974 66.2027 65.202 69.1726 65.2588 69.6751C65.3156 70.1776 68.6723 69.175 68.8377 68.3129C69.003 67.4508 68.6614 65.1037 68.6614 65.1037Z" fill="#BAB3B4"/>
<path d="M6.88568 36.6645C7.20314 36.5398 11.0716 35.1453 11.945 35.3391C12.5373 35.5046 13.0784 35.8169 13.5184 36.2472C11.0141 37.506 9.46872 38.2807 8.32803 37.6406C7.73513 37.3054 7.28534 37.0865 7.03305 36.9395C6.78077 36.7924 6.73298 36.727 6.88568 36.6645Z" fill="white"/>
<path opacity="0.09" d="M6.88573 36.6645C7.20319 36.5398 11.0717 35.1453 11.945 35.3391C11.7007 35.8493 8.40576 37.5809 7.03311 36.9395C6.80354 36.8015 6.73304 36.727 6.88573 36.6645Z" fill="#1F1F39"/>
<path d="M5.37743 35.7604C5.69012 35.6332 9.5634 34.2412 10.432 34.4325C11.0369 34.6065 11.5871 34.9331 12.0297 35.3812C9.52542 36.64 7.96126 37.3924 6.81612 36.7376C6.22576 36.3977 5.77713 36.1825 5.52485 36.0354C5.27256 35.8884 5.22362 35.8193 5.37743 35.7604Z" fill="white"/>
<path opacity="0.09" d="M5.37733 35.7605C5.69003 35.6332 9.5633 34.2413 10.4319 34.4325C10.1876 34.9428 8.37349 36.1472 5.52475 36.0355C5.28787 35.8997 5.22352 35.8193 5.37733 35.7605Z" fill="#1F1F39"/>
<path d="M3.66917 34.6852C4.3295 34.6432 4.97865 34.494 5.59124 34.2436L5.6168 34.2358C6.91223 33.7292 8.28761 33.2622 8.72373 33.3573C9.37431 33.5685 9.96181 33.9394 10.4328 34.436C7.92962 35.6985 6.25411 36.3209 5.10676 35.6588C4.5164 35.3188 4.06777 35.1036 3.81548 34.9566L3.73698 34.9085C3.56572 34.8047 3.53364 34.7385 3.66917 34.6852Z" fill="white"/>
<path opacity="0.09" d="M3.66917 34.6852C4.3295 34.6432 4.97865 34.494 5.59124 34.2436L5.6168 34.2358C6.94337 33.7397 8.33892 33.2866 8.77504 33.3816C8.53077 33.8919 6.06492 34.975 3.86424 34.9857L3.7381 34.9122C3.56573 34.8047 3.53364 34.7385 3.66917 34.6852Z" fill="#1F1F39"/>
<path d="M1.97273 33.6348C2.29019 33.5101 6.15866 32.1156 7.0309 32.3057C7.67245 32.5127 8.25369 32.8738 8.72382 33.3574C6.21951 34.6162 4.55657 35.2668 3.41509 34.6109C2.82219 34.2757 2.37239 34.0569 2.12011 33.9098C1.86782 33.7628 1.81893 33.6937 1.97273 33.6348Z" fill="white"/>
<path opacity="0.23" d="M1.97279 33.6347C2.29025 33.51 6.15871 32.1155 7.03095 32.3057C6.78668 32.8159 3.99777 33.1378 2.12016 33.9097C1.89059 33.7717 1.81898 33.6936 1.97279 33.6347Z" fill="#1F1F39"/>
<path d="M5.87682 31.3456C5.97092 31.5948 6.12995 31.8142 6.33735 31.981C7.54153 33.0537 67.377 69.2616 67.5282 69.4835C67.5393 69.5201 67.607 69.5194 67.6885 69.4986C67.8021 69.4687 67.9102 69.4209 68.0088 69.357C68.5097 69.0605 69.1232 68.3857 68.4539 67.7859C68.3938 67.731 68.3292 67.6811 68.2609 67.6368C68.2609 67.6368 8.71744 30.3922 7.54141 30.2667C6.60879 30.1669 5.64575 30.6243 5.87682 31.3456Z" fill="#543237"/>
<path d="M11.8057 28.5319C11.8367 28.8703 12.3511 32.9562 12.9164 33.6476C13.3326 34.1027 13.8568 34.445 14.4405 34.6428C14.4297 31.8471 14.4263 30.1007 13.3299 29.3831C12.761 29.0086 12.3655 28.7052 12.1194 28.5523C11.8733 28.3993 11.7872 28.3656 11.8057 28.5319Z" fill="white"/>
<path opacity="0.09" d="M11.8056 28.5318C11.8365 28.8702 12.3509 32.9561 12.9163 33.6475C13.2614 33.2065 13.3082 29.4695 12.1159 28.5412C11.8855 28.3875 11.787 28.3655 11.8056 28.5318Z" fill="#1F1F39"/>
<path d="M10.3141 27.5907C10.3451 27.9292 10.8594 32.015 11.4248 32.7064C11.8537 33.1667 12.3935 33.5089 12.9923 33.7004C12.9816 30.9046 12.9383 29.1584 11.8361 28.4346C11.2672 28.0601 10.8716 27.7567 10.6255 27.6038C10.3794 27.4508 10.2967 27.4281 10.3141 27.5907Z" fill="white"/>
<path opacity="0.09" d="M10.3142 27.5907C10.3451 27.9291 10.8595 32.0149 11.4248 32.7064C11.77 32.2654 12.0159 30.0912 10.6233 27.5964C10.3952 27.45 10.2967 27.428 10.3142 27.5907Z" fill="#1F1F39"/>
<path d="M8.58213 26.5549C8.84588 27.1618 9.00842 27.808 9.06328 28.4676C9.06328 28.4676 9.06884 28.4859 9.07218 28.4969C9.20847 29.8788 9.41451 31.3196 9.70013 31.6684C10.1826 32.1524 10.7778 32.5084 11.4321 32.7042C11.4214 29.9084 11.2136 28.1204 10.1114 27.3965C9.54138 27.0184 9.14584 26.715 8.90452 26.5646L8.82603 26.5166C8.64158 26.4088 8.56912 26.4069 8.58213 26.5549Z" fill="white"/>
<path opacity="0.09" d="M8.58212 26.5548C8.84586 27.1617 9.0084 27.8079 9.06327 28.4675C9.06327 28.4675 9.06882 28.4858 9.07216 28.4968C9.23196 29.9036 9.46072 31.3534 9.74523 31.6985C10.0904 31.2575 9.93218 28.5546 8.94484 26.5922L8.82379 26.5092C8.64156 26.4087 8.56911 26.4068 8.58212 26.5548Z" fill="#1F1F39"/>
<path d="M6.87687 25.515C6.90892 25.8571 7.4233 29.943 7.99121 30.6296C8.4647 31.111 9.04903 31.4685 9.69285 31.6707C9.6821 28.8749 9.49739 27.0838 8.40247 26.3578C7.83357 25.9833 7.43803 25.6799 7.19194 25.527C6.94585 25.374 6.86307 25.3513 6.87687 25.515Z" fill="white"/>
<path opacity="0.23" d="M6.87686 25.5149C6.90891 25.857 7.4233 29.9428 7.99121 30.6295C8.33636 30.1885 7.35483 27.5485 7.19082 25.5232C6.96158 25.3731 6.86306 25.3511 6.87686 25.5149Z" fill="#1F1F39"/>
<path opacity="0.47" d="M5.87695 31.3456C5.97105 31.5948 6.13008 31.8142 6.33748 31.981C7.54166 33.0537 67.3771 69.2616 67.5283 69.4835C67.5725 69.55 67.7794 69.495 68.009 69.3571C60.9999 64.8547 11.4409 34.5208 5.87695 31.3456Z" fill="#1F1F39"/>
<path d="M65.1091 69.9047C65.0475 70.6352 72.6475 71.9826 73.2419 71.5736L73.2675 71.5658C73.6737 71.1022 69.0491 65.0256 68.6649 65.1147C68.2807 65.2038 68.1035 67.341 67.5563 68.3395L67.538 68.345C66.9889 69.324 65.1481 69.389 65.1091 69.9047Z" fill="white"/>
<path opacity="0.22" d="M65.109 69.9047C65.0474 70.6352 72.6474 71.9825 73.2418 71.5735C71.0032 69.8164 68.8186 68.6705 67.539 68.3486C66.9888 69.324 65.148 69.3889 65.109 69.9047Z" fill="#1F1F39"/>
</svg>
